<?xml version="1.0" encoding="utf-8"?>
<!-- Generator: Adobe Illustrator 21.0.0, SVG Export Plug-In . SVG Version: 6.00 Build 0)  -->
<svg version="1.1" id="Layer_1" xmlns="http://www.w3.org/2000/svg" xmlns:xlink="http://www.w3.org/1999/xlink" x="0px" y="0px"
	 viewBox="0 0 90 90" style="enable-background:new 0 0 90 90;" xml:space="preserve">
<style type="text/css">
	.st0{fill:#ED5145;}
</style>
<g>
	<path class="st0" d="M42.4,16.2L30.7,27.9c-1.1,1.1-1.3,3-0.2,4.2c1.2,1.3,3.1,1.3,4.3,0.1l5.3-5.3c0.6-0.6,1.6-0.2,1.6,0.7v19.1
		c0,1.6,1.2,3.1,2.8,3.1c1.7,0.1,3.1-1.3,3.1-3V27.6c0-0.8,1-1.3,1.6-0.7l5.2,5.2c1.1,1.1,3,1.3,4.2,0.2c1.3-1.2,1.3-3.1,0.1-4.3
		L47,16.2C45.7,14.9,43.7,14.9,42.4,16.2z"/>
	<path class="st0" d="M41.7,57.9v3.4c0,1.6,1.3,3,3,3s3-1.3,3-3v-3.4c0-1.6-1.3-3-3-3S41.7,56.3,41.7,57.9z"/>
	<path class="st0" d="M41.7,71.5v0.3c0,1.6,1.3,3,3,3s3-1.3,3-3v-0.3c0-1.6-1.3-3-3-3S41.7,69.9,41.7,71.5z"/>
</g>
</svg>
